<svg xmlns="http://www.w3.org/2000/svg" width="488pt" height="116pt" viewBox="0 0 1792 422"><path fill="#007cff" stroke="#007cff" stroke-width=".094" d="M148.8 12.6C173.9 4.4 200.6 1 227 2.7c38.7 2.1 76.5 15.8 108 38.3 3.4 2.5 7.1 4.8 10 8 5 5.7 7 13.8 5.2 21.2-1.8 8-8.1 14.8-15.9 17.2-7.6 2.4-16.3.8-22.4-4.3-23.5-18.1-52.1-29.5-81.6-32.3-10.8-1.2-21.8-1.2-32.6 0-31.1 3.1-61.2 15.6-85.4 35.5-27.3 22.3-47.2 53.7-55 88.1-7.2 31.2-5 64.6 6.6 94.5 12.2 31.8 34.9 59.3 63.5 77.7 21.4 13.7 46.1 22.2 71.3 24.6 9.8 1.2 19.8 1.2 29.5.1 30.5-2.6 60-14.3 84.2-33 6.1-4.8 14.8-6.2 22.2-3.7 10.2 3.5 17.5 14.4 16.2 25.2-.6 6.3-3.9 12.3-8.9 16.1-19.2 15-41 26.5-64.2 33.9-29.9 9.6-62.1 12.1-93.2 7.8C150 412.8 116.8 399 89 378c-27-20.2-49-47.1-63.5-77.6C11.3 270.5 4.4 237.1 5.6 204 6.7 163.3 20.2 123.1 44 90c25.6-36 62.7-63.7 104.8-77.4Z"/><path fill="#001934" stroke="#001934" stroke-width=".094" d="M197.7 50.8c10.8-1.2 21.8-1.2 32.6 0-10.9-.3-21.7-.3-32.6 0Z" opacity=".4"/><path fill="#6fbaf7" stroke="#6fbaf7" stroke-width=".094" d="M441.4 69.4C451.8 66.3 464 71.2 469 81c24 46.9 34.5 100.5 30.2 153-3 37.4-13.3 74.3-30.6 107.6-6.3 11.9-23.2 15.7-34.1 7.9-10.1-6.5-13.4-21-7.4-31.5 33.4-65.6 33.7-146.9.7-212.7-3-5.4-4.6-11.8-3.1-17.9 1.7-8.5 8.4-15.7 16.7-18Z"/><path fill="#002cb8" stroke="#002cb8" stroke-width=".094" d="M1601.8 75.8c1.1-4.4 5.5-7.7 10.2-7.5 9 0 18-.1 27 0 5.2-.2 10 4.4 10 9.6.2 26.4-.1 52.8.1 79.1 13.1-11.8 30.1-18.6 47.5-20.3 19.7-2 40.5 1.4 57.2 12.5 20.9 13.6 32.4 38.3 34.3 62.6.6 23.4.2 46.8.3 70.2-.1 17 .2 34.1-.2 51.1-1.3 4.3-5.7 7.1-10.1 6.9-8.7 0-17.5.1-26.2 0-4.7.2-9.1-3.3-10.1-7.8.1-30.4 0-60.8 0-91.2 0-6.1.2-12.2-.4-18.3-1.2-14.9-6.8-30.7-19.4-39.8-10.2-7.6-23.8-9.3-36.1-7.2-9.6 1.7-18.6 6.8-24.8 14.4-8.6 10.6-11.9 24.5-12 37.9-.1 34 0 68.1-.1 102.1.1 5-4.1 9.5-9.1 9.8-7 .3-13.9 0-20.9.1-3.3 0-6.5.2-9.7-.3-3.7-.8-6.7-3.9-7.5-7.5z"/><path fill="#000b31" stroke="#000b31" stroke-width=".094" d="M1601.2 79.9c.1-1.3.3-2.7.6-4.1v256.4c-.9-4.4-.5-8.8-.5-13.2-.1-79.7.1-159.4-.1-239.1Z" opacity=".52"/><path fill="#002cb8" stroke="#002cb8" stroke-width=".094" d="M145.6 97.5c42.4-25.6 99.7-24.9 140.9 3 10.2 7.5 12.3 23.5 4.4 33.4-7.1 9.7-21.8 12.6-31.9 6.1-16-10.2-35.4-14.6-54.2-12.4-18.8 2-36.8 10.7-50 24.2-13.2 13.1-21.8 30.7-23.9 49.2-1.9 15 .6 30.5 6.8 44.3 8.2 18.2 23.1 33.3 41.3 41.7 18.6 8.8 40.4 10.2 60 4.1 26.2-8 47.9-29.7 55.4-56-18.8.1-37.6 0-56.4 0-9 0-17.7-5.6-21.4-13.7-4.6-9.3-2.2-21.4 5.6-28.2 4-3.6 9.3-6 14.7-6.2 28.4-.2 56.7-.1 85.1-.1 9.3-.3 18.3 5.5 22 14 3.2 6.6 2.2 14.1 1.8 21.2-2.5 30.8-16.4 60.5-38.4 82.3-21.1 21.2-49.6 34.9-79.4 37.9-29.3 3.2-59.6-3.9-84.5-19.8-25.1-15.9-44.7-40.6-54.3-68.8-9.8-28.5-9.3-60.4.9-88.7 10-28 30-52.2 55.5-67.5Zm577.2-17c20.6-2.3 41.8-.6 61.4 6.2 23.4 8.1 44.6 22.8 59.4 42.7 3.2 3.7 4.7 9.2 2.5 13.8-2.6 6-9.5 7.9-14.6 11.3-5.8 2.9-11.4 8.5-18.5 6.8-5.5-.7-8.2-6-11.6-9.8-13.1-14.5-31.9-23.3-51.3-25.3-15.4-1.5-31.3.2-45.7 6.2-16.9 7.1-31 20.2-39.8 36.2-8.7 15.9-11.5 34.5-9.8 52.4 1.2 14.2 6 28.2 14.3 39.9 11.4 16.1 28.4 28.2 47.6 33.3 13.6 3.4 28.1 4.6 41.9 1.1 17.5-4.2 34.2-12.9 46.6-26.2 8.8-9.4 14.8-21.4 17.3-34 .1-.5.3-1.6.4-2.1-24.4.1-48.8 0-73.1.1-5.3-1-9.9-5.6-10.2-11.1-.3-5 0-10-.1-15 0-3.6-.4-7.6 1.7-10.8 2.4-4.1 7.1-6.3 11.7-6h100.2c8.9-.3 16.8 7.9 16.1 16.8-.4 12.6-.1 25.5-3.2 37.8-3.7 15.7-10 30.8-19 44.2-7.5 11.3-17.6 20.6-28.7 28.3-14.5 9.9-30.7 17.2-47.7 21.4-22.8 5.8-47 4.4-69.6-1.7-31.1-8.5-58.2-29.6-75.1-56.9-18.2-29.2-22.7-65.6-15.7-98.9 6.8-32.8 27.9-61.8 55.6-80.4 16.9-11.3 36.7-18.1 57-20.3Zm291.5-.3c18.2-1.7 36.9-.4 54.4 5.1 26.6 8.2 50.9 25.3 66.3 48.7 3 4.4 1.6 11.2-3.1 13.9-6.6 4-13.5 7.8-20.2 11.8-3 1.7-6.1 3.9-9.7 3.4-3.4-.1-6.1-2.5-7.9-5.2-10.6-15.8-27.9-26.5-46.3-30.4-15-3-30.8-2.3-45.5 1.8-16.3 4.6-30.8 14.7-40.9 28.1-9.7 12.5-15.2 27.9-16.5 43.6-1.7 17.9.9 36.6 9.5 52.6 8.3 15.5 21.6 28.3 37.7 35.3 15 6.6 31.8 8.3 47.9 6.7 19.5-2.1 38.4-11.5 50.8-26.8 2.4-2.9 4-6.6 7.2-8.7 3.2-2 7.5-1.7 10.7.3 7.6 4.4 15.3 8.7 22.9 13.1 3.9 2.1 5.9 7.1 4.7 11.4-1.2 3.3-3.6 6-5.6 8.8-23.3 31-62.1 49.1-100.7 48.6-30.1.5-60.8-8.8-84.3-28-13.7-11.1-25.3-24.8-33.6-40.4-8.7-16.3-13.4-34.5-14.5-53-1.3-19.9 1.1-40.3 8.2-59.1 10.4-27.2 30.7-50.5 55.9-65.1 16-9.3 34.2-14.7 52.6-16.5Z"/><path fill="#6fbaf7" stroke="#6fbaf7" stroke-width=".094" d="M376.4 110.6c10.3-2.7 22 2.6 26.8 12.1 26 55 26 121.6 0 176.6-3.3 6.5-9.9 11.3-17.2 12.5-8.5 1.5-17.6-2.1-22.9-8.9-5.5-7.1-6.5-17.3-2.5-25.3 19.4-42.1 19.1-92.6-.5-134.6-5.9-12.9 2.5-29.4 16.3-32.4Z"/><path fill="#002cb8" stroke="#002cb8" stroke-width=".094" d="M1235.6 134.8c18.9-3.8 39.3-2.7 56.7 6 13 6.4 24 17.5 28.7 31.4.6-9-.1-18.1.3-27.2.1-4.9 4.8-9 9.7-9 9.4-.1 18.7-.1 28.1 0 5.3-.1 10 4.6 9.8 10v178c0 2.6.1 5.3-.2 8-.7 4.6-5.1 8-9.7 8-7.7.1-15.3-.1-23 0-2.6 0-5.2.2-7.6-.4-3.9-1.1-6.9-4.6-7.1-8.6-.3-6.1.1-12.2-.2-18.2-5.2 4.6-10 9.6-15.7 13.6-14.2 10.6-31.7 16.8-49.4 16.8-19.5.2-39-5.9-54.7-17.5-15.3-11.1-26.8-27-33.6-44.5-8.2-20.9-9.9-44-6.2-66 3.5-20.5 12.8-40.3 27.5-55.2 12.6-12.8 29.1-21.6 46.6-25.2m19.8 40.7c-14.3 2.1-27.4 10.4-35.5 22.4-14.8 21.5-15.4 51.4-2.9 74.1 6.8 12.8 18.6 23.3 32.8 27.1 18.1 5.2 38.8.2 52.4-12.9 11.9-11 18-27.2 18.8-43.2 1.2-18.5-3.8-38.4-17.2-51.8-12.3-12.8-31-18.5-48.4-15.7Zm216.9-42.2c21-1.9 43.2.8 61.3 12.2 16.2 10 26.9 27.7 29.2 46.5.6 5.5-4.2 10.9-9.7 10.7-8.7.1-17.5 0-26.1.1-3 .1-6.2-.3-8.4-2.4-3.1-2.5-3.3-6.7-4.9-10.1-3-7-9.4-12.1-16.6-14.4-7.6-2.4-15.7-2.5-23.5-1.5-6.4.9-13 2.9-17.4 7.9-4.8 5.3-5 14.3-.3 19.7 4.9 5.7 12.2 8.5 19.1 11 19.7 6.6 40.5 10.1 59.1 19.8 10.8 5.6 20.8 13.8 26.3 24.8 8.7 17.3 7.2 39.1-3.8 55-9.3 13.8-24.4 22.5-40.2 26.8-19.3 5.2-40.1 5.1-59.3-.3-14.7-4.2-28.6-12-38.9-23.3-8.1-8.8-13.9-19.9-15.8-31.8-1-5.6 3.9-11.2 9.6-11.2 9.7-.1 19.4 0 29 0 4.6-.2 8.9 2.9 10.1 7.3 1.5 5.1 4.5 9.8 8.6 13.2 8.3 7 19.6 9.5 30.3 8.8 8.3-.4 17-2.1 23.5-7.6 5.6-4.7 7.7-13.5 3.7-19.8-3.5-5.3-9.7-8.1-15.5-10.5-16.8-6.3-34.6-9.2-51.4-15.5-12.3-4.5-24.5-10.7-33.3-20.7-12.8-14.4-15.5-36.1-8.8-53.8 5.6-14.6 17.9-25.7 31.8-32.2 10.1-4.9 21.2-7.6 32.3-8.7Z"/><path fill="#001966" stroke="#001966" stroke-width=".094" d="M1788.1 211.8c1.4 9 .4 18.1.7 27.2v83c0 3.7.4 7.5-.6 11.1.4-17 .1-34.1.2-51.1-.1-23.4.3-46.8-.3-70.2Z" opacity=".75"/><path fill="#000a2b" stroke="#000a2b" stroke-width=".094" d="M1741.4 222.7c.6 6.1.4 12.2.4 18.3 0 30.4.1 60.8 0 91.2-1-5-.4-10.1-.5-15.2 0-31.4-.1-62.8.1-94.3Z" opacity=".48"/><path fill="#00030e" stroke="#00030e" stroke-width=".094" d="M749.8 233.1c24.3-.1 48.7 0 73.1-.1-.1.5-.3 1.6-.4 2.1-2-1.1-4.3-1.5-6.5-1.5-20.3.2-40.7-.1-61 .2-1.8 0-3.5-.4-5.2-.7Z" opacity=".27"/><path fill="#001e3e" stroke="#001e3e" stroke-width=".094" d="M198.7 371.2c9.9.2 19.7.2 29.5.1-9.7 1.1-19.7 1.1-29.5-.1Z" opacity=".46"/></svg>