<svg xmlns="http://www.w3.org/2000/svg" xmlns:xlink="http://www.w3.org/1999/xlink" width="1550.678" height="406.338" viewBox="0 0 410.284 107.51"><defs><linearGradient id="e" x1="-.001" x2="1.001" y1=".5" y2=".5" gradientUnits="userSpaceOnUse"><stop offset="0" stop-color="#ff9200"/><stop offset=".29" stop-color="#f36d00"/><stop offset=".32" stop-color="#f4680b"/><stop offset=".57" stop-color="#f83c72"/><stop offset=".78" stop-color="#fc1cbe"/><stop offset=".93" stop-color="#fe08ed"/><stop offset="1" stop-color="#f0f"/></linearGradient><linearGradient id="f" x1="-.001" x2="1.001" y1=".5" y2=".5" gradientUnits="userSpaceOnUse"><stop offset="0" stop-color="#ff9200" style="stop-color:#ffb900;stop-opacity:1"/><stop offset=".338" stop-color="#f36d00" style="stop-color:#f38000;stop-opacity:1"/><stop offset=".567" stop-color="#f83c72"/><stop offset=".78" stop-color="#fc1cbe"/><stop offset=".93" stop-color="#fe08ed"/><stop offset="1" stop-color="#f0f"/></linearGradient><linearGradient id="h"><stop offset="0" style="stop-color:#ed6600;stop-opacity:1"/><stop offset="1" style="stop-color:#f98200;stop-opacity:1"/></linearGradient><linearGradient id="g"><stop offset="0" style="stop-color:#ee0a3f;stop-opacity:1"/><stop offset="1" style="stop-color:#ee0a3f;stop-opacity:0"/></linearGradient><linearGradient xlink:href="#e" id="i" x1="-.001" x2="1.001" y1=".5" y2=".5" gradientUnits="userSpaceOnUse"/><linearGradient xlink:href="#f" id="j" x1="-.001" x2="66.758" y1=".5" y2="-.017" gradientUnits="userSpaceOnUse"/><linearGradient xlink:href="#g" id="k" x1="18.754" x2="86.818" y1="49.006" y2="11.32" gradientUnits="userSpaceOnUse"/><linearGradient xlink:href="#h" id="m" x1="41.793" x2="75.037" y1="39.349" y2="12.569" gradientUnits="userSpaceOnUse"/><linearGradient xlink:href="#g" id="l" x1="18.754" x2="86.818" y1="49.006" y2="11.32" gradientUnits="userSpaceOnUse"/><linearGradient xlink:href="#h" id="n" x1="41.793" x2="75.037" y1="39.349" y2="12.569" gradientUnits="userSpaceOnUse"/></defs><g style="fill:#000083;fill-opacity:1;fill-rule:evenodd;stroke:#000;stroke-width:1;stroke-linecap:square;stroke-linejoin:bevel"><g style="fill:#000083;fill-opacity:1;stroke:none"><path d="M90.447 6.624h6.529V38.04h11.254v6.201H90.474z" style="vector-effect:none;fill:#000083;fill-opacity:1;fill-rule:nonzero" transform="matrix(1.42346 0 0 1.42346 38.935 5.609)"/></g><g style="fill:#000083;fill-opacity:1;stroke:none"><path d="M123.35 16.049a11.07 11.07 0 0 1 8.865 4.261V16.61h6.091v27.686h-6.091v-3.702a11.07 11.07 0 0 1-8.865 4.262c-7.594 0-13.358-6.488-13.358-14.41s5.764-14.396 13.358-14.396m1.107 5.545c-4.931 0-8.196 3.88-8.196 8.85 0 4.973 3.319 8.865 8.196 8.865s8.195-3.879 8.195-8.864-3.265-8.85-8.195-8.85" style="vector-effect:none;fill:#000083;fill-opacity:1;fill-rule:nonzero" transform="matrix(1.42346 0 0 1.42346 38.935 5.609)"/></g><g style="fill:#000083;fill-opacity:1;stroke:none"><path d="m143.046 39.487 14.519-17.346h-14.301v-5.532h22.168v4.876l-14.464 17.278h14.792v5.532h-22.714z" style="vector-effect:none;fill:#000083;fill-opacity:1;fill-rule:nonzero" transform="matrix(1.42346 0 0 1.42346 38.935 5.609)"/></g><g style="fill:#000083;fill-opacity:1;stroke:none"><path d="M181.249 16.049a11.06 11.06 0 0 1 8.864 4.261V16.61h6.092v27.686h-6.092v-3.702a11.06 11.06 0 0 1-8.864 4.262c-7.594 0-13.345-6.488-13.345-14.41s5.751-14.396 13.345-14.396m1.106 5.545c-4.931 0-8.195 3.88-8.195 8.85 0 4.973 3.319 8.865 8.195 8.865s8.195-3.879 8.195-8.864-3.264-8.85-8.195-8.85" style="vector-effect:none;fill:#000083;fill-opacity:1;fill-rule:nonzero" transform="matrix(1.42346 0 0 1.42346 38.935 5.609)"/></g><g style="fill:#000083;fill-opacity:1;stroke:none"><path d="M213.606 16.049a11.02 11.02 0 0 1 8.851 4.261V4.398h6.091v39.897h-6.091v-3.702a11.02 11.02 0 0 1-8.851 4.262c-7.594 0-13.358-6.488-13.358-14.41s5.764-14.396 13.358-14.396m1.106 5.545c-4.931 0-8.195 3.88-8.195 8.85 0 4.973 3.333 8.865 8.195 8.865 4.863 0 8.195-3.879 8.195-8.864s-3.264-8.85-8.195-8.85" style="vector-effect:none;fill:#000083;fill-opacity:1;fill-rule:nonzero" transform="matrix(1.42346 0 0 1.42346 38.935 5.609)"/></g><g style="fill:#000083;fill-opacity:1;stroke:none"><path d="M245.949 16.049a11.02 11.02 0 0 1 8.851 4.261V16.61h6.078v27.686h-6.105v-3.702a11.02 11.02 0 0 1-8.851 4.262c-7.594 0-13.358-6.488-13.358-14.41s5.791-14.396 13.385-14.396m1.107 5.545c-4.931 0-8.196 3.88-8.196 8.85 0 4.973 3.333 8.865 8.196 8.865s8.195-3.879 8.195-8.864-3.265-8.85-8.195-8.85" style="vector-effect:none;fill:#000083;fill-opacity:1;fill-rule:nonzero" transform="matrix(1.42346 0 0 1.42346 38.935 5.609)"/></g></g><g style="fill:url(#i);fill-rule:evenodd;stroke:none;stroke-width:1;stroke-linecap:square;stroke-linejoin:bevel" transform="translate(-.049)scale(1.96487)"><path d="M33.737 54.716c-.479.003-.95-.12-1.366-.355-3.565-2.062-29.967-18.617-30.964-19.122A2.39 2.39 0 0 1 .04 33.327v-23.22A2.51 2.51 0 0 1 1.175 7.95l.19-.109C3.92 6.256 12.47 1.038 13.823.287A2.05 2.05 0 0 1 14.847 0c.338.004.67.088.97.246 0 0 11.965 7.799 13.795 8.495a9.4 9.4 0 0 0 4.097.861 9.2 9.2 0 0 0 4.59-1.12C40.088 7.54 51.52.287 51.643.287c.288-.174.62-.264.956-.26.361.002.715.101 1.024.287 1.558.86 12.157 7.348 12.607 7.635a2.46 2.46 0 0 1 1.188 2.131V33.3a2.36 2.36 0 0 1-1.365 1.912c-.997.546-27.317 17.1-30.95 19.122a2.73 2.73 0 0 1-1.366.382" style="vector-effect:none;fill:url(#j);fill-rule:nonzero"/></g><g style="fill:url(#k);fill-opacity:1;fill-rule:evenodd;stroke:none;stroke-width:1;stroke-linecap:square;stroke-linejoin:bevel" transform="translate(-.049)scale(1.96487)"><path d="M33.6 54.716h.137c.478.003.95-.12 1.365-.355 3.565-2.062 29.954-18.617 30.95-19.122a2.36 2.36 0 0 0 1.366-1.912v-23.22a2.5 2.5 0 0 0-.259-1.133L33.6 27.399z" style="vector-effect:none;fill:url(#l);fill-opacity:1;fill-rule:nonzero"/></g><g style="fill:url(#m);fill-opacity:1;fill-rule:evenodd;stroke:none;stroke-width:1;stroke-linecap:square;stroke-linejoin:bevel"><path d="M33.6 54.716h.137c.478.003.95-.12 1.365-.355 3.565-2.062 29.954-18.617 30.95-19.122a2.36 2.36 0 0 0 1.366-1.912v-23.22a2.5 2.5 0 0 0-.259-1.133L33.6 27.399z" style="vector-effect:none;fill:url(#n);fill-opacity:1;fill-rule:nonzero" transform="matrix(-1.94394 0 0 1.94394 131.058 .502)"/></g></svg>