<svg xmlns="http://www.w3.org/2000/svg" xml:space="preserve" width="800" height="800" viewBox="0 -140 780 780"><path fill="#FFF" d="M0 0h780v500H0z"/><path fill="#003087" d="M168.38 169.85c-8.399-5.774-19.359-8.668-32.88-8.668H83.154q-6.218.001-6.87 6.214l-21.265 133.48q-.33 1.966.981 3.6c.869 1.093 1.962 1.636 3.271 1.636h24.864c4.361 0 6.758-2.068 7.198-6.216l5.888-35.985c.215-1.744.982-3.162 2.291-4.254 1.308-1.09 2.944-1.804 4.907-2.13 1.963-.324 3.814-.487 5.562-.487q2.614 0 6.217.327 3.597.325 4.58.324c18.756 0 33.478-5.285 44.167-15.866 10.684-10.577 16.032-25.244 16.032-44.004 0-12.868-4.202-22.192-12.597-27.975zm-26.99 40.08c-1.094 7.635-3.926 12.649-8.506 15.049-4.581 2.403-11.124 3.597-19.629 3.597l-10.797.328 5.563-35.007q.65-3.596 4.252-3.597h6.218c8.72 0 15.049 1.257 18.975 3.761q5.887 3.767 3.924 15.869"/><path fill="#009CDE" d="M720.79 161.18h-24.208q-3.606 0-4.253 3.599l-21.267 136.1-.328.654c0 1.096.437 2.127 1.311 3.109.868.979 1.963 1.471 3.271 1.471h21.595c4.138 0 6.429-2.068 6.871-6.215l21.265-133.81v-.325c-.002-3.053-1.424-4.58-4.257-4.58z"/><path fill="#003087" d="M428.31 213.86c0-1.088-.438-2.126-1.306-3.106q-1.313-1.473-2.945-1.474h-25.191c-2.404 0-4.366 1.096-5.89 3.271l-34.679 51.04-14.394-49.075q-1.642-5.234-7.198-5.236h-24.54q-1.64 0-2.942 1.474c-.875.98-1.309 2.019-1.309 3.106 0 .44 2.127 6.871 6.379 19.303q6.379 18.65 13.741 40.244c4.908 14.394 7.468 22.031 7.688 22.898q-26.827 36.646-26.826 39.26 0 4.256 4.253 4.254h25.191q3.597.002 5.89-3.271l83.427-120.4c.433-.433.651-1.193.651-2.289z"/><path fill="#009CDE" d="M662.89 209.28h-24.865c-3.056 0-4.904 3.599-5.559 10.797-5.677-8.72-16.031-13.088-31.083-13.088q-23.558 0-40.077 17.668-16.522 17.67-16.521 41.551 0 19.306 11.285 30.752c7.524 7.639 17.611 11.451 30.266 11.451q9.485-.002 19.3-3.926c6.544-2.617 11.665-6.105 15.379-10.469 0 .219-.222 1.198-.654 2.942-.44 1.748-.655 3.06-.655 3.926 0 3.494 1.414 5.234 4.254 5.234h22.576c4.138 0 6.541-2.068 7.193-6.216l13.415-85.389q.323-1.962-.981-3.599c-.876-1.087-1.964-1.634-3.273-1.634m-42.694 64.452q-8.343 8.18-20.12 8.179c-6.328 0-11.449-1.742-15.377-5.234q-5.891-5.225-5.891-14.396c0-8.064 2.727-14.884 8.181-20.446 5.446-5.562 12.214-8.343 20.284-8.343q9.154 0 15.212 5.397c4.032 3.599 6.055 8.563 6.055 14.888q-.002 11.778-8.344 19.955"/><path fill="#003087" d="M291.23 209.28h-24.864c-3.058 0-4.908 3.599-5.563 10.797-5.889-8.72-16.25-13.088-31.081-13.088q-23.557 0-40.078 17.668-16.522 17.67-16.521 41.551 0 19.306 11.288 30.752c7.525 7.639 17.61 11.451 30.262 11.451 6.104 0 12.433-1.311 18.975-3.926q9.815-3.924 15.704-10.469-1.31 3.925-1.309 6.868c0 3.494 1.417 5.234 4.253 5.234h22.574c4.141 0 6.543-2.068 7.198-6.216l13.413-85.389q.322-1.962-.981-3.599-1.309-1.632-3.27-1.634m-42.695 64.614c-5.563 5.351-12.382 8.017-20.447 8.017-6.329 0-11.4-1.742-15.214-5.234q-5.727-5.225-5.726-14.396c0-8.064 2.725-14.884 8.18-20.446q8.174-8.343 20.284-8.343 9.156 0 15.214 5.398c4.032 3.599 6.052 8.563 6.052 14.888 0 8.069-2.781 14.778-8.343 20.116"/><path fill="#009CDE" d="M540.04 169.85c-8.398-5.774-19.356-8.668-32.879-8.668h-52.02q-6.548.001-7.197 6.214l-21.266 133.48q-.331 1.967.981 3.601c.865 1.092 1.962 1.635 3.271 1.635h26.826q3.925.001 5.235-4.252l5.89-37.949q.325-2.616 2.29-4.254c1.309-1.09 2.943-1.803 4.908-2.13 1.962-.324 3.812-.487 5.562-.487q2.614 0 6.214.327c2.399.218 3.931.324 4.58.324 18.76 0 33.479-5.285 44.168-15.866q16.031-15.865 16.031-44.004c.002-12.867-4.199-22.191-12.594-27.974zm-33.534 53.82q-7.199 4.906-21.592 4.906l-10.47.328 5.562-35.007q.648-3.596 4.252-3.597h5.887q7.195 0 11.454.653c2.831.44 5.562 1.799 8.179 4.089q3.926 3.437 3.926 9.98-.002 13.74-7.198 18.648"/></svg>