<svg xmlns="http://www.w3.org/2000/svg" width="38" height="24" aria-labelledby="pi-seveneleven"><path d="M35 0H3a3 3 0 0 0-3 3v18a3 3 0 0 0 3 3h32a3 3 0 0 0 3-3V3a3 3 0 0 0-3-3" opacity=".07"/><path fill="#fff" d="M35 .9a2 2 0 0 1 2 2v18a2 2 0 0 1-2 2H3a2 2 0 0 1-2-2v-18a2 2 0 0 1 2-2z"/><circle cx="19" cy="11.9" r="9.85" fill="#008357"/><path fill="#fff" d="M24.6 18.93a.7.7 0 0 1-.54.53h-2.85V20h-4.16v-.54h-3.11a.7.7 0 0 1-.3-.17.8.8 0 0 1-.22-.43l-1.3-12.78a.67.67 0 0 1 .45-.57h12.74a.74.74 0 0 1 .56.44.9.9 0 0 1 0 .33Z"/><path fill="#ed1c2e" d="M23.92 10.1a4.27 4.27 0 0 0-2.47 2.79H18a4 4 0 0 1 .14-.47 7.8 7.8 0 0 1 2.07-3.27 10.4 10.4 0 0 1 2.87-2 4 4 0 0 1 .55-.2c.09 0 .17-.06.28-.07v3.22"/><path fill="#f58220" d="M22.84 7a8.5 8.5 0 0 0-1.92 1.2 11.3 11.3 0 0 0-1.79 1.74h-4.72v-3Z"/><path fill="#008357" d="M20.6 13.16c-.11.81-.23 1.61-.38 2.42h-1.1c-.12-.81-.25-1.61-.36-2.41h.74c.1.6.17 1.21.28 1.79.11-.59.18-1.2.28-1.8h.51m-5 .49H15v.42h.57v.52H15v.48h.57v.5h-1.34v-2.42h1.33v.51m3 0H18v.42h.57v.52H18v.48h.57v.5h-1.29v-2.43h1.33v.51m3.51 0h-.58v.42h.57v.52h-.57v.48h.57v.5h-1.33v-2.43h1.34zm-6.3-.51h.74v1.93h.54v.5h-1.28zm7.27.27a.68.68 0 0 1 .61-.34c.43 0 .51.31.51.93v1.56h-.74v-1.51c0-.22 0-.36-.17-.36s-.21.17-.21.45v1.42h-.74v-2.44h.74zm-1.17 3c.08 0 .15 0 .15-.1s-.07-.09-.13-.09h-.13v.19zm-.11.35h-.09v-.67H22c.15 0 .22.06.22.17a.15.15 0 0 1-.15.17l.18.28h-.11l-.16-.27h-.11v.27Zm.11.14a.46.46 0 0 0 .46-.45.45.45 0 0 0-.9 0 .44.44 0 0 0 .42.45Zm-.54-.49a.55.55 0 0 1 1.09 0 .56.56 0 0 1-.54.56.54.54 0 0 1-.54-.53Z"/><path fill="#ed1c2e" d="M17.29 19.78v-1.16c0-.92.11-1.87.24-2.78h3.53c-.13 1.31-.12 2.62-.12 3.94z"/></svg>