<svg xmlns="http://www.w3.org/2000/svg" width="148" height="43" fill="none"><g fill="#75EEA5" clip-path="url(#a)"><path d="M33.225.246c-3.382 0-6.63 1.322-9.05 3.686l1.312 2.491-.538.433A13.115 13.115 0 0 0 13.762.3C6.627.299.856 6.54.856 13.859V29.6a.97.97 0 0 0 1.01 1.01h5.168a.945.945 0 0 0 .957-.958V13.689c0-3.633 2.203-6.557 5.954-6.557 3.502 0 6.007 2.623 6.007 6.492v13.115a.958.958 0 0 0 .945 1.023h4.892a.959.959 0 0 0 .944-1.023V13.624a6.072 6.072 0 0 1 6.138-6.492c3.738 0 5.823 2.977 5.823 6.557v15.936a.997.997 0 0 0 1.01.957h5.115a.957.957 0 0 0 1.01-1.01V13.834c0-7.345-5.522-13.588-12.604-13.588ZM79.56.836h-4.695a.944.944 0 0 0-1.01.957v.643l1.666 2.623-.459.446A14.86 14.86 0 0 0 63.914.259a15.463 15.463 0 0 0-.092 30.887 14.952 14.952 0 0 0 11.214-5.247l.393.315-1.665 2.728v.604a.996.996 0 0 0 1.01 1.01h4.787a.957.957 0 0 0 1.01-1.01V1.793a.92.92 0 0 0-1.01-.957ZM63.823 24.509a8.8 8.8 0 1 1 0-17.6 8.8 8.8 0 0 1 0 17.6ZM146.66.836h-4.695a.95.95 0 0 0-.715.257.948.948 0 0 0-.295.7v.643l1.666 2.623-.459.446A14.863 14.863 0 0 0 131.014.259a15.463 15.463 0 0 0 0 30.926 14.95 14.95 0 0 0 11.213-5.246l.394.315-1.666 2.728v.603a.994.994 0 0 0 1.01 1.01h4.695a.96.96 0 0 0 .949-.615.951.951 0 0 0 .061-.395V1.793a.912.912 0 0 0-.285-.71.918.918 0 0 0-.725-.247Zm-15.646 23.673a8.8 8.8 0 1 1 0-17.6 8.8 8.8 0 0 1 0 17.6ZM111.692.837h-4.813c-.774 0-1.193.42-1.193.826v14.519a7.2 7.2 0 0 1-7.555 7.672c-4.223 0-6.951-3.148-6.951-7.672V1.662c0-.406-.656-.825-1.075-.825h-5.247a.905.905 0 0 0-.826.826V16.09a14.27 14.27 0 0 0 14.034 14.427 14.757 14.757 0 0 0 9.784-3.699l.275.25-2.138 2.91v1.168c0 2.977-4.472 4.643-7.082 4.643h-1.666a1.01 1.01 0 0 0-1.075.957v4.748a1.05 1.05 0 0 0 1.075.958h1.666c7.974 0 13.797-4.643 13.797-13.391V1.663a.966.966 0 0 0-1.01-.826Z"/></g><defs><clipPath id="a"><path fill="#fff" d="M.805.246h146.879v42.231H.804z"/></clipPath></defs></svg>